<svg width="16" height="16" viewBox="0 0 16 16" fill="none" xmlns="http://www.w3.org/2000/svg" class="product-preview" data-v-50a4f6d9=""><rect width="16" height="16" rx="4" fill="#4CC8CC" fill-opacity="0.15"></rect><path fill-rule="evenodd" clip-rule="evenodd" d="M6.49658 3.66667C4.93366 3.66667 3.66667 4.93366 3.66667 6.49658C3.66667 8.0595 4.93366 9.32649 6.49658 9.32649C8.0595 9.32649 9.32649 8.0595 9.32649 6.49658C9.32649 4.93366 8.0595 3.66667 6.49658 3.66667ZM2.66667 6.49658C2.66667 4.38138 4.38138 2.66667 6.49658 2.66667C8.61178 2.66667 10.3265 4.38138 10.3265 6.49658C10.3265 8.61178 8.61178 10.3265 6.49658 10.3265C4.38138 10.3265 2.66667 8.61178 2.66667 6.49658Z" fill="#4CC8CC"></path><path fill-rule="evenodd" clip-rule="evenodd" d="M8.81311 8.81311C9.00838 8.61785 9.32496 8.61785 9.52022 8.81311L12.3486 11.6415C12.5439 11.8368 12.5439 12.1534 12.3486 12.3486C12.1534 12.5439 11.8368 12.5439 11.6415 12.3486L8.81311 9.52022C8.61785 9.32496 8.61785 9.00838 8.81311 8.81311Z" fill="#4CC8CC"></path><path fill-rule="evenodd" clip-rule="evenodd" d="M9.24408 9.24408C9.56952 8.91864 10.0972 8.91864 10.4226 9.24408L12.5844 11.4058C12.9098 11.7313 12.9098 12.2589 12.5844 12.5843C12.2589 12.9098 11.7313 12.9098 11.4058 12.5843L9.24408 10.4226C8.91864 10.0972 8.91864 9.56952 9.24408 9.24408Z" fill="#4CC8CC"></path></svg>